<svg width="24" height="21" viewBox="0 0 24 21" fill="none" xmlns="http://www.w3.org/2000/svg">
<path id="Vector" d="M12.0793 19.2724C12.067 19.811 11.5695 20.2017 11.072 20.1112C11.7548 20.236 13.3439 20.4108 14.2379 20.1112C13.7198 20.1893 13.247 19.7946 13.2346 19.2683C13.2346 19.297 12.8852 16.505 14.2831 13.9227C15.4795 11.7145 16.1456 11.9448 17.5476 11.4102C19.3444 10.7235 21.1904 10.0163 22.4568 8.47427C24.5249 5.95362 23.978 2.49954 23.8012 1.56612C21.581 4.75292 19.332 3.84828 17.0666 5.29981C14.7641 6.77602 13.7362 9.10341 13.9583 11.5953C16.2402 7.60664 19.1223 9.36246 22.0991 5.37383C21.3754 6.57453 20.3846 7.61898 19.1511 8.36325C17.3791 9.44882 16.5239 9.13219 13.839 13.0304C13.3457 13.7459 12.9468 14.5271 12.659 15.3454C12.326 14.3997 11.845 13.4909 11.2364 12.6932C10.0153 11.1018 9.47672 10.2013 8.40772 9.43237C6.94402 8.37147 4.45244 7.96439 2.44191 4.61722C5.79691 9.11986 8.94222 7.06386 11.4996 11.5418C11.7545 8.70455 10.5539 6.151 8.0418 4.53909C5.52144 2.92308 3.02163 3.93052 0.55061 0.381866C0.353256 1.4222 -0.255245 5.26692 2.0472 8.0713C3.45269 9.7843 5.49525 10.5661 7.48705 11.3285L7.5073 11.3362C8.46529 11.7022 10.9281 11.8132 11.8902 16.2007C12.1533 17.4179 12.1081 18.121 12.0793 19.2724Z" fill="#00730C"/>
</svg>
