<svg width="51" height="51" viewBox="0 0 51 51" fill="none" xmlns="http://www.w3.org/2000/svg">
<g id="02_Home Page / About Us / Icon / Our Mission" clip-path="url(#clip0_486_3977)">
<g id="Vector" filter="url(#filter0_d_486_3977)">
<path d="M21.7294 38.9054L21.6459 37.4687C21.6449 37.4527 21.6433 37.4366 21.6411 37.4207C21.4448 36.0058 20.8607 34.6728 19.9536 33.5693C19.0464 32.4659 17.8516 31.635 16.5014 31.1686L16.0344 31.0061C15.3873 30.7799 14.7993 30.4111 14.3138 29.927L12.0435 27.6566L11.2666 25.0275C11.0805 24.3375 10.6894 23.7201 10.1451 23.257C9.6007 22.7939 8.92868 22.5068 8.21774 22.4337L8.0902 22.008C8.08883 22.0033 8.08727 21.9982 8.08581 21.994C7.72389 20.8879 6.52018 20.1758 5.29352 20.2571L5.25485 20.129C5.02109 19.3433 4.49331 18.6781 3.78139 18.2718C3.06948 17.8656 2.22829 17.7495 1.43297 17.9479C1.28801 17.9839 1.16226 18.0739 1.08142 18.1995C1.00057 18.325 0.970739 18.4768 0.998013 18.6236L3.48561 32.011C3.4907 32.0383 3.49771 32.0652 3.50661 32.0915C4.09076 33.8091 5.20906 35.2947 6.69801 36.3312L12.1308 40.0745C12.1406 40.0816 12.1515 40.0884 12.1624 40.0948C12.5463 40.3238 12.8325 40.6861 12.9664 41.1126L13.3795 46.6937C13.3879 46.8088 13.4302 46.9188 13.5009 47.0099C13.5716 47.101 13.6677 47.1693 13.777 47.206L13.8888 47.2435C16.3319 48.0707 18.9765 48.089 21.4308 47.2959L21.7034 47.2086C21.8216 47.1707 21.9247 47.0962 21.9979 46.9959C22.0711 46.8956 22.1105 46.7747 22.1105 46.6506V43.5274C22.1105 42.2579 21.9989 40.8858 21.7589 39.2075C21.7453 39.1076 21.735 39.0059 21.7294 38.9054ZM10.1363 25.337C10.1376 25.3422 10.139 25.3473 10.1406 25.3523L10.4004 26.2312C10.0364 26.0313 9.64192 25.8927 9.23288 25.8211L8.59938 23.7071C8.97058 23.8301 9.30539 24.0434 9.57367 24.328C9.84195 24.6125 10.0353 24.9592 10.1363 25.337ZM6.96998 22.3527L8.00612 25.8097C7.67292 25.8591 7.34778 25.9526 7.03932 26.088L5.64645 21.4368C6.21842 21.4931 6.79 21.8136 6.96998 22.3527ZM20.9388 46.2221C18.8474 46.8684 16.6094 46.8661 14.5193 46.2156L14.1305 40.963C14.1277 40.9236 14.1208 40.8847 14.11 40.8467C13.905 40.1168 13.4299 39.4921 12.7813 39.0995L7.36422 35.3673C6.09391 34.4825 5.13664 33.218 4.62985 31.7552L2.26481 19.026C2.68771 19.0391 3.09573 19.1851 3.43093 19.4433C3.76613 19.7015 4.01147 20.0587 4.13209 20.4642L6.01872 26.7543C5.97607 26.7933 5.93418 26.8334 5.89303 26.8744C5.83708 26.9304 5.79306 26.9972 5.76363 27.0707C5.7342 27.1442 5.71996 27.2228 5.72179 27.302C5.72361 27.3811 5.74146 27.4591 5.77425 27.5312C5.80704 27.6032 5.85409 27.6679 5.91256 27.7213L8.63395 30.2071C9.42644 30.9313 10.1512 31.7262 10.7993 32.5821C10.8455 32.644 10.9035 32.6962 10.97 32.7357C11.0365 32.7751 11.1101 32.801 11.1866 32.8118C11.2631 32.8227 11.341 32.8183 11.4158 32.7989C11.4907 32.7795 11.5609 32.7455 11.6225 32.6989C11.6841 32.6523 11.7359 32.5939 11.7749 32.5271C11.8139 32.4604 11.8393 32.3866 11.8496 32.31C11.8599 32.2334 11.855 32.1555 11.8351 32.0809C11.8152 32.0062 11.7807 31.9362 11.7337 31.8749C11.0425 30.9621 10.2695 30.1143 9.42438 29.342L7.20895 27.3188C7.71169 27.0128 8.30259 26.8843 8.88703 26.9539C9.47147 27.0235 10.0156 27.2873 10.4324 27.7029L13.4851 30.7555C14.0956 31.3645 14.8351 31.8284 15.6491 32.113L16.1161 32.2755C17.2588 32.6701 18.2706 33.3724 19.04 34.3049C19.8094 35.2375 20.3067 36.3642 20.4771 37.5611L20.5591 38.973C20.5668 39.1059 20.5803 39.2407 20.5993 39.3734C20.8307 40.9955 20.9386 42.3154 20.9386 43.5277L20.9388 46.2221Z" fill="white"/>
</g>
<g id="Vector_2" filter="url(#filter1_d_486_3977)">
<path d="M49.5669 17.9479C48.7717 17.7496 47.9306 17.8655 47.2188 18.2716C46.5069 18.6778 45.979 19.3428 45.7452 20.1283L45.7061 20.2575C44.4797 20.1764 43.2758 20.8883 42.9137 21.9944C42.9122 21.999 42.9107 22.0037 42.9093 22.0084L42.7822 22.4337C42.0713 22.5068 41.3993 22.7938 40.8549 23.2569C40.3106 23.7199 39.9195 24.3372 39.7333 25.0271L38.9563 27.6563L36.6861 29.9267C36.2006 30.4107 35.6127 30.7795 34.9656 31.0058L34.4984 31.1683C33.1482 31.6346 31.9534 32.4655 31.0463 33.569C30.1392 34.6724 29.5551 36.0054 29.3588 37.4203C29.3566 37.4362 29.355 37.4523 29.354 37.4684L29.2705 38.9055C29.2649 39.0056 29.2546 39.1072 29.2404 39.2076C29.0008 40.8858 28.8888 42.2584 28.8888 43.5274V46.6502C28.8888 46.7724 28.9271 46.8916 28.9982 46.9911C29.0693 47.0905 29.1698 47.1652 29.2855 47.2047C31.7651 48.0456 34.4498 48.064 36.9407 47.257L37.0933 47.2072C37.2017 47.1718 37.2975 47.1056 37.3688 47.0166C37.4401 46.9276 37.4839 46.8197 37.4948 46.7061L38.0311 41.118C38.1642 40.689 38.4512 40.3244 38.8369 40.0944C38.8478 40.0881 38.8582 40.0812 38.8685 40.0741L44.3033 36.3302C45.7915 35.2939 46.9093 33.8088 47.4933 32.0919C47.5022 32.0656 47.5092 32.0387 47.5143 32.0114L50.0019 18.6236C50.0292 18.4768 49.9993 18.3251 49.9185 18.1995C49.8376 18.0739 49.7119 17.9839 49.5669 17.9479ZM44.0298 22.3522C44.2098 21.8129 44.7818 21.4923 45.3536 21.4361L44.0097 25.9298L43.9609 26.0879C43.6524 25.9526 43.3273 25.859 42.9941 25.8097L44.0298 22.3522ZM40.8593 25.3523C40.8609 25.3474 40.8623 25.3426 40.8636 25.337C40.9647 24.9593 41.158 24.6126 41.4263 24.3281C41.6946 24.0437 42.0294 23.8304 42.4005 23.7074L41.7669 25.8215C41.3579 25.8932 40.9635 26.0318 40.5995 26.2316L40.8593 25.3523ZM46.3699 31.7553C45.8634 33.2175 44.9067 34.4816 43.637 35.3663L38.2186 39.0995C37.57 39.4922 37.0949 40.1168 36.8899 40.8468C36.8802 40.8806 36.8737 40.9152 36.8703 40.9502L36.3655 46.2101C34.3103 46.8296 32.1187 46.8341 30.061 46.2229V43.5274C30.061 42.3151 30.1684 40.9952 30.4003 39.3732C30.4193 39.2403 30.4328 39.1056 30.4405 38.9728L30.5225 37.5605C30.6929 36.3636 31.1902 35.2369 31.9596 34.3044C32.729 33.3719 33.7407 32.6696 34.8834 32.2749L35.3506 32.1124C36.1645 31.8278 36.904 31.3639 37.5145 30.755L40.5672 27.7024C40.984 27.2868 41.5281 27.0231 42.1126 26.9534C42.697 26.8838 43.2879 27.0122 43.7907 27.3183L41.5754 29.3417C40.7303 30.1141 39.9573 30.9619 39.2661 31.8746C39.2191 31.9359 39.1846 32.0059 39.1647 32.0806C39.1448 32.1553 39.1399 32.2332 39.1502 32.3097C39.1605 32.3863 39.1859 32.4601 39.2249 32.5269C39.2639 32.5936 39.3157 32.652 39.3773 32.6986C39.4389 32.7453 39.5091 32.7793 39.584 32.7986C39.6588 32.818 39.7367 32.8224 39.8132 32.8116C39.8897 32.8007 39.9633 32.7748 40.0298 32.7354C40.0963 32.696 40.1543 32.6438 40.2005 32.5818C40.8486 31.726 41.5734 30.931 42.3659 30.2068L45.0877 27.7207C45.1462 27.6673 45.1932 27.6026 45.2259 27.5305C45.2587 27.4584 45.2765 27.3805 45.2783 27.3013C45.28 27.2222 45.2658 27.1435 45.2363 27.07C45.2068 26.9965 45.1628 26.9298 45.1068 26.8738C45.0657 26.8326 45.0238 26.7925 44.9811 26.7536L46.8678 20.4635C46.9884 20.058 47.2338 19.7008 47.5689 19.4426C47.9041 19.1845 48.3121 19.0385 48.735 19.0255L46.3699 31.7553Z" fill="white"/>
</g>
<g id="Vector_3" filter="url(#filter2_d_486_3977)">
<path d="M33.7933 14.4335C35.5159 13.0207 36.56 11.0568 36.8128 8.75398L37.4396 3.7862C37.4503 3.70158 37.4424 3.61564 37.4164 3.5344C37.3904 3.45316 37.347 3.37857 37.2892 3.31585C37.2314 3.25312 37.1606 3.20377 37.0818 3.17124C37.0029 3.13871 36.9179 3.12379 36.8327 3.12751C31.6846 3.35212 27.6467 8.52605 27.8315 14.6607L27.8706 15.9567C27.2663 17.1633 26.7588 18.4159 26.3527 19.7027C26.0254 18.9464 25.6017 18.2356 25.092 17.588C24.9768 16.4028 24.7768 15.2273 24.4933 14.0708C23.9109 11.804 22.4117 10.0463 20.4829 9.36892L14.3359 7.20964C14.2456 7.1779 14.1488 7.16879 14.0541 7.18311C13.9594 7.19743 13.8697 7.23473 13.7928 7.29176C13.7159 7.34879 13.6541 7.4238 13.6129 7.51024C13.5716 7.59668 13.5522 7.6919 13.5563 7.78757C13.7194 11.5953 15.0827 14.8405 17.2966 16.691C18.6663 17.8359 20.3367 18.4253 22.1823 18.4253C22.5909 18.4247 22.9991 18.3969 23.404 18.342L24.1583 18.2952C24.7263 19.0137 25.1734 19.8201 25.4818 20.6826C25.8802 21.7919 26.0228 22.8584 25.9087 23.8589H19.7891C19.7062 23.8588 19.6242 23.8764 19.5485 23.9105C19.4729 23.9445 19.4053 23.9943 19.3503 24.0564C19.2953 24.1185 19.2541 24.1916 19.2295 24.2708C19.2049 24.35 19.1973 24.4335 19.2074 24.5159L20.0207 31.1727C20.038 31.3148 20.1068 31.4455 20.2139 31.5404C20.3211 31.6352 20.4592 31.6876 20.6023 31.6876H30.3972C30.5403 31.6876 30.6785 31.6352 30.7856 31.5404C30.8928 31.4455 30.9615 31.3148 30.9789 31.1727L31.7922 24.5159C31.8022 24.4335 31.7947 24.35 31.7701 24.2708C31.7454 24.1916 31.7042 24.1185 31.6492 24.0564C31.5943 23.9943 31.5267 23.9445 31.4511 23.9105C31.3754 23.8764 31.2934 23.8588 31.2104 23.8589H27.0863C27.1469 23.1988 27.1203 22.5337 27.0073 21.8805C27.3581 20.0658 28.062 18.2178 28.867 16.5807C30.7125 16.2883 32.4554 15.5307 33.7933 14.4335ZM36.1859 4.36511L35.65 8.61218L35.6488 8.62195C35.2254 12.4989 32.3984 14.5295 29.5719 15.243C29.9924 14.4952 30.4199 13.8173 30.8233 13.2394L33.1398 9.92273C33.2279 9.7953 33.262 9.63816 33.2346 9.48568C33.2071 9.3332 33.1204 9.1978 32.9934 9.10909C32.8664 9.02038 32.7094 8.98558 32.5568 9.01231C32.4042 9.03905 32.2684 9.12513 32.1791 9.25173L29.8626 12.5684C29.5841 12.9673 29.2944 13.4125 29.0032 13.8941C29.1468 9.00603 32.2102 4.95271 36.1854 4.36492L36.1859 4.36511ZM19.4785 12.3068C19.3636 12.2021 19.2119 12.1474 19.0566 12.1546C18.9014 12.1619 18.7554 12.2305 18.6507 12.3453C18.546 12.4602 18.4913 12.612 18.4985 12.7672C18.5058 12.9224 18.5744 13.0685 18.6892 13.1731L23.1058 17.1966C21.1429 17.4274 19.4415 16.9567 18.048 15.7921C16.2529 14.2915 15.0868 11.7054 14.7878 8.61062L20.0945 10.4743C21.6534 11.0218 22.8734 12.4752 23.3583 14.3621C23.498 14.9058 23.6205 15.5134 23.7256 16.1758L19.4785 12.3068ZM30.5488 25.0307L29.8788 30.5157H21.121L20.4511 25.0307H30.5488Z" fill="white"/>
</g>
</g>
<defs>
<filter id="filter0_d_486_3977" x="-9.01184" y="7.85327" width="41.1223" height="50.0244" filterUnits="userSpaceOnUse" color-interpolation-filters="sRGB">
<feFlood flood-opacity="0" result="BackgroundImageFix"/>
<feColorMatrix in="SourceAlpha" type="matrix" values="0 0 0 0 0 0 0 0 0 0 0 0 0 0 0 0 0 0 127 0" result="hardAlpha"/>
<feOffset/>
<feGaussianBlur stdDeviation="5"/>
<feComposite in2="hardAlpha" operator="out"/>
<feColorMatrix type="matrix" values="0 0 0 0 0 0 0 0 0 0 0 0 0 0 0 0 0 0 0.25 0"/>
<feBlend mode="normal" in2="BackgroundImageFix" result="effect1_dropShadow_486_3977"/>
<feBlend mode="normal" in="SourceGraphic" in2="effect1_dropShadow_486_3977" result="shape"/>
</filter>
<filter id="filter1_d_486_3977" x="18.8888" y="7.85327" width="41.1229" height="49.9958" filterUnits="userSpaceOnUse" color-interpolation-filters="sRGB">
<feFlood flood-opacity="0" result="BackgroundImageFix"/>
<feColorMatrix in="SourceAlpha" type="matrix" values="0 0 0 0 0 0 0 0 0 0 0 0 0 0 0 0 0 0 127 0" result="hardAlpha"/>
<feOffset/>
<feGaussianBlur stdDeviation="5"/>
<feComposite in2="hardAlpha" operator="out"/>
<feColorMatrix type="matrix" values="0 0 0 0 0 0 0 0 0 0 0 0 0 0 0 0 0 0 0.25 0"/>
<feBlend mode="normal" in2="BackgroundImageFix" result="effect1_dropShadow_486_3977"/>
<feBlend mode="normal" in="SourceGraphic" in2="effect1_dropShadow_486_3977" result="shape"/>
</filter>
<filter id="filter2_d_486_3977" x="3.55579" y="-6.87305" width="43.8884" height="48.5605" filterUnits="userSpaceOnUse" color-interpolation-filters="sRGB">
<feFlood flood-opacity="0" result="BackgroundImageFix"/>
<feColorMatrix in="SourceAlpha" type="matrix" values="0 0 0 0 0 0 0 0 0 0 0 0 0 0 0 0 0 0 127 0" result="hardAlpha"/>
<feOffset/>
<feGaussianBlur stdDeviation="5"/>
<feComposite in2="hardAlpha" operator="out"/>
<feColorMatrix type="matrix" values="0 0 0 0 0 0 0 0 0 0 0 0 0 0 0 0 0 0 0.25 0"/>
<feBlend mode="normal" in2="BackgroundImageFix" result="effect1_dropShadow_486_3977"/>
<feBlend mode="normal" in="SourceGraphic" in2="effect1_dropShadow_486_3977" result="shape"/>
</filter>
<clipPath id="clip0_486_3977">
<rect width="50" height="50" fill="white" transform="translate(0.5 0.5)"/>
</clipPath>
</defs>
</svg>
