<svg width="51" height="43" viewBox="0 0 51 43" fill="none" xmlns="http://www.w3.org/2000/svg">
<g id="Group" filter="url(#filter0_d_15357_6608)">
<g id="Group_2">
<path id="Vector" d="M49.0787 15.2443L44.6678 19.6552L37.5128 12.5001L41.9236 8.08924L40.7453 6.91089L35.7452 11.9109L31.8227 15.8335H19.1792L15.2567 11.9109L10.2566 6.91089L9.07829 8.08924L13.4892 12.5001L6.3341 19.6552L1.92322 15.2443L0.744873 16.4227L5.74493 21.4227L9.91164 25.5894L14.3283 29.9828L13.6617 30.6495C12.6505 31.6495 12.6416 33.2799 13.6416 34.2911C13.6482 34.2978 13.6549 34.3045 13.6617 34.3112C14.1259 34.7712 14.7468 35.039 15.4 35.0612C15.4241 35.7132 15.6966 36.3312 16.1617 36.7887C16.6262 37.2484 17.2469 37.5162 17.9001 37.5387C17.9255 38.1917 18.2002 38.8103 18.6676 39.2671C19.132 39.7267 19.7528 39.9946 20.4059 40.0171C20.43 40.6691 20.7025 41.2871 21.1676 41.7446C22.1855 42.7502 23.823 42.7502 24.841 41.7446L25.501 41.0837L26.161 41.7396C27.178 42.7547 28.8252 42.7532 29.8403 41.7362C30.3012 41.2745 30.5718 40.6564 30.5985 40.0046C31.2527 39.9809 31.8737 39.7113 32.3377 39.2496C32.8026 38.7892 33.0747 38.1691 33.0985 37.5154C33.7528 37.4914 34.3739 37.2215 34.8377 36.7595C35.3026 36.2992 35.5747 35.6791 35.5986 35.0253C37.0291 34.976 38.1487 33.7763 38.0992 32.3457C38.0765 31.6878 37.8042 31.0631 37.3378 30.5986L36.7061 29.9695L41.0886 25.5869L45.2553 21.4202L50.2554 16.4202L49.0787 15.2443ZM7.51244 20.8335L14.6675 13.6785L17.6559 16.6668L10.5008 23.8219L7.51244 20.8335ZM16.1675 33.1262C15.7992 33.4941 15.2025 33.4941 14.8342 33.1262C14.4766 32.7737 14.4724 32.198 14.8249 31.8404C14.8279 31.8373 14.8311 31.8342 14.8342 31.8311L15.5117 31.1595L16.8342 32.4662L16.1675 33.1262ZM18.6567 35.607C18.2889 35.9664 17.7012 35.9657 17.3342 35.6054C16.9764 35.2518 16.9729 34.6751 17.3265 34.3172C17.3291 34.3146 17.3316 34.312 17.3342 34.3095L18.0084 33.6428L19.3234 34.9495L18.6567 35.607ZM21.1676 38.0837C20.7989 38.4507 20.2029 38.4507 19.8342 38.0837C19.4766 37.7312 19.4725 37.1556 19.825 36.798C19.828 36.7948 19.8311 36.7917 19.8342 36.7887L20.5059 36.122L21.8201 37.4287L21.1676 38.0837ZM23.6676 40.5621C23.2997 40.9247 22.7089 40.9247 22.3409 40.5621C21.9833 40.2096 21.9792 39.6339 22.3317 39.2763C22.3347 39.2732 22.3378 39.2701 22.3409 39.2671L23.0076 38.6046L24.3218 39.9112L23.6676 40.5621ZM36.169 33.0866C36.1674 33.0881 36.166 33.0896 36.1644 33.0912H36.1677C35.8015 33.4547 35.2106 33.4547 34.8444 33.0912L33.5944 31.8461C33.2683 31.5212 32.7405 31.5222 32.4156 31.8482C32.0907 32.1743 32.0917 32.7021 32.4177 33.027L33.6677 34.272C34.0293 34.631 34.0313 35.2151 33.6723 35.5766C33.6707 35.5782 33.6693 35.5796 33.6677 35.5812C33.3015 35.9447 32.7106 35.9447 32.3444 35.5812L31.0944 34.3362C30.7683 34.0113 30.2405 34.0122 29.9156 34.3383C29.5907 34.6643 29.5916 35.1921 29.9177 35.517L31.1677 36.762C31.5293 37.121 31.5312 37.7052 31.1723 38.0666C31.1707 38.0682 31.1693 38.0697 31.1677 38.0712C30.8014 38.4348 30.2106 38.4348 29.8443 38.0712L28.5943 36.8262C28.2683 36.5013 27.7405 36.5022 27.4156 36.8283C27.0907 37.1543 27.0916 37.6821 27.4177 38.007L28.6677 39.2521C29.0292 39.611 29.0312 40.1952 28.6722 40.5567C28.6707 40.5582 28.6692 40.5597 28.6677 40.5612C28.301 40.9245 27.7102 40.9245 27.3435 40.5612L11.6808 25.0002L19.1809 17.5002H21.8568L15.74 23.7602C15.421 24.0867 15.424 24.6091 15.7467 24.9319C16.7795 25.975 18.1663 26.5924 19.6326 26.6619C21.108 26.7401 22.5473 26.1878 23.5918 25.1427C23.6287 25.1063 23.6618 25.0664 23.6909 25.0236L23.9926 24.5811C25.7921 25.9998 28.1379 26.5261 30.371 26.0119L36.1644 31.782C36.5259 32.1409 36.528 32.7251 36.169 33.0866ZM35.5319 28.7961L32.036 25.3144L32.6677 24.8336C32.6974 24.8104 32.7252 24.7851 32.751 24.7577L33.5844 23.9244L32.406 22.7461L31.6135 23.5386L30.8927 24.0819C28.6677 25.0337 26.0856 24.5019 24.4176 22.7486C24.0922 22.423 23.5646 22.423 23.2391 22.7483C23.2024 22.785 23.1693 22.8249 23.1401 22.8677L22.3526 24.0202C21.6404 24.6944 20.6837 25.0484 19.7042 25.0002C18.9382 24.9608 18.1975 24.7123 17.5625 24.2819L24.1851 17.5002H31.8227L39.3228 25.0002L35.5319 28.7961ZM40.5011 23.8219L33.346 16.6668L36.3344 13.6785L43.4895 20.8335L40.5011 23.8219Z" fill="white"/>
</g>
</g>
<defs>
<filter id="filter0_d_15357_6608" x="-9.25513" y="0.910889" width="69.5105" height="55.5891" filterUnits="userSpaceOnUse" color-interpolation-filters="sRGB">
<feFlood flood-opacity="0" result="BackgroundImageFix"/>
<feColorMatrix in="SourceAlpha" type="matrix" values="0 0 0 0 0 0 0 0 0 0 0 0 0 0 0 0 0 0 127 0" result="hardAlpha"/>
<feOffset dy="4"/>
<feGaussianBlur stdDeviation="5"/>
<feComposite in2="hardAlpha" operator="out"/>
<feColorMatrix type="matrix" values="0 0 0 0 0 0 0 0 0 0 0 0 0 0 0 0 0 0 0.2 0"/>
<feBlend mode="normal" in2="BackgroundImageFix" result="effect1_dropShadow_15357_6608"/>
<feBlend mode="normal" in="SourceGraphic" in2="effect1_dropShadow_15357_6608" result="shape"/>
</filter>
</defs>
</svg>
